<?xml version="1.0" encoding="utf-8"?>
<!-- Generator: Adobe Illustrator 28.1.0, SVG Export Plug-In . SVG Version: 6.00 Build 0)  -->
<svg version="1.1" id="Layer_1" xmlns="http://www.w3.org/2000/svg" xmlns:xlink="http://www.w3.org/1999/xlink" x="0px" y="0px"
	 viewBox="0 0 288 288" style="enable-background:new 0 0 288 288;" xml:space="preserve">
<style type="text/css">
	.st0{fill:#231F20;}
</style>
<g>
	<path class="st0" d="M100.8,128.9c-1.9,0-3.6,1.2-3.6,3.1v29.7c0,2,1.8,3.1,3.6,3.1c1.9,0,3.6-1.2,3.6-3.1V132
		C104.4,130,102.7,128.9,100.8,128.9z"/>
	<path class="st0" d="M144,63c-46.3,0-83.9,37.5-83.9,83.9c0,46.3,37.5,83.9,83.9,83.9c46.3,0,83.9-37.5,83.9-83.9
		C227.9,100.6,190.3,63,144,63z M120.6,160.8c0,10.2-8.6,17.2-19.8,17.2c-11.3,0-19.9-6.9-19.9-17.2v-27.9
		c0-10.2,8.6-17.1,19.9-17.1c11.2,0,19.8,6.8,19.8,17.1V160.8z M167,176.5H154l-9.2-19.3l-4.1-8.5v27.8h-14.2v-59.2h13.8l8.9,19.8
		l3.8,8.5v-28.4H167V176.5z M200.8,140.5v11.2h-11.6v11h18v13.7h-33.9v-59.2h33.9v12.9h-18v10.4H200.8z"/>
</g>
</svg>
